<svg width="337" height="92" viewBox="0 0 337 92" fill="none" xmlns="http://www.w3.org/2000/svg">
<mask id="mask0_308_2227" style="mask-type:luminance" maskUnits="userSpaceOnUse" x="0" y="0" width="337" height="92">
<path d="M336.15 0.615234H0.398438V91.3438H336.15V0.615234Z" fill="white"/>
</mask>
<g mask="url(#mask0_308_2227)">
<path d="M52.4277 23.2312L56.465 22.8762C56.6536 24.5067 57.0973 25.8377 57.796 26.8803C58.4948 27.9229 59.5818 28.7658 61.0458 29.4091C62.521 30.0524 64.1736 30.3741 66.0148 30.3741C67.6453 30.3741 69.0872 30.1301 70.3405 29.6421C71.5939 29.154 72.5256 28.4886 73.1356 27.6345C73.7456 26.7805 74.0562 25.8599 74.0562 24.8505C74.0562 23.8412 73.7567 22.9428 73.1799 22.1775C72.5921 21.4122 71.6161 20.78 70.2629 20.2586C69.3977 19.9148 67.4789 19.3935 64.5064 18.6726C61.5339 17.9516 59.4487 17.275 58.2619 16.6428C56.7202 15.8331 55.5666 14.8238 54.8013 13.6148C54.0471 12.4059 53.67 11.0638 53.67 9.56643C53.67 7.92489 54.1358 6.39426 55.0564 4.96346C55.9881 3.53265 57.3413 2.45677 59.1159 1.71364C60.9016 0.970512 62.8759 0.604492 65.0499 0.604492C67.4456 0.604492 69.5641 0.992698 71.3942 1.7691C73.2243 2.54551 74.6329 3.68793 75.6201 5.19638C76.6072 6.70482 77.1396 8.41292 77.2062 10.3207L73.1023 10.6312C72.8805 8.57929 72.1374 7.02648 70.8618 5.97279C69.5863 4.91909 67.7118 4.39779 65.2273 4.39779C62.7428 4.39779 60.7464 4.87472 59.5707 5.82859C58.3839 6.78246 57.796 7.93598 57.796 9.27805C57.796 10.4427 58.2175 11.4076 59.0494 12.1618C59.8701 12.9161 62.0219 13.6925 65.5046 14.48C68.9874 15.2675 71.372 15.9662 72.6697 16.5541C74.5553 17.4303 75.9417 18.5284 76.8402 19.8704C77.7386 21.2125 78.1822 22.7542 78.1822 24.4956C78.1822 26.237 77.6831 27.8563 76.7071 29.387C75.7199 30.9176 74.3002 32.1044 72.459 32.9584C70.6178 33.8125 68.5326 34.234 66.2256 34.234C63.2974 34.234 60.8462 33.8014 58.8608 32.9473C56.8865 32.0933 55.3337 30.7956 54.2024 29.0764C53.0821 27.3572 52.4832 25.4051 52.4277 23.2312Z" fill="white"/>
<path d="M116.162 22.2773L120.443 23.3643C119.544 26.9025 117.936 29.5977 115.596 31.45C113.267 33.3023 110.416 34.234 107.044 34.234C103.673 34.234 100.722 33.5241 98.5372 32.0933C96.3521 30.6625 94.6884 28.5995 93.546 25.8931C92.4036 23.1868 91.8379 20.2808 91.8379 17.1752C91.8379 13.7923 92.4812 10.8309 93.7678 8.31309C95.0545 5.79532 96.8845 3.87648 99.2581 2.56769C101.632 1.25889 104.249 0.604492 107.1 0.604492C110.339 0.604492 113.056 1.43635 115.263 3.08899C117.47 4.74162 119.012 7.07084 119.877 10.0766L115.662 11.0749C114.908 8.71239 113.821 6.98211 112.402 5.90623C110.971 4.83036 109.174 4.28687 107.022 4.28687C104.538 4.28687 102.452 4.88582 100.789 6.0837C99.125 7.28158 97.9493 8.88985 97.2727 10.9085C96.5961 12.9272 96.2523 15.0124 96.2523 17.153C96.2523 19.9148 96.6516 22.3328 97.4502 24.3958C98.2488 26.4588 99.5021 28.0005 101.188 29.0209C102.874 30.0414 104.715 30.5516 106.678 30.5516C109.074 30.5516 111.104 29.8528 112.768 28.4664C114.431 27.0799 115.552 25.0169 116.139 22.2773" fill="white"/>
<path d="M174.367 33.6795V1.15918H178.649V29.8418H194.576V33.6795H174.367Z" fill="white"/>
<path d="M208.029 33.6795V1.15918H231.421V4.99684H212.311V14.957H230.212V18.7725H212.311V29.8418H232.176V33.6795H208.029Z" fill="white"/>
<path d="M257.273 15.7891H245.072V19.8042H257.273V15.7891Z" fill="white"/>
<path d="M290.409 1.15918H294.69V19.9482C294.69 23.2202 294.324 25.8156 293.581 27.7344C292.849 29.6533 291.518 31.2172 289.599 32.4261C287.68 33.6351 285.162 34.2341 282.046 34.2341C278.929 34.2341 276.533 33.7128 274.603 32.6591C272.673 31.6054 271.298 30.0858 270.477 28.1005C269.656 26.1151 269.246 23.3977 269.246 19.9482V1.15918H273.527V19.926C273.527 22.7544 273.794 24.8285 274.315 26.1705C274.836 27.5126 275.735 28.5441 277.01 29.2651C278.286 29.986 279.838 30.352 281.68 30.352C284.83 30.352 287.07 29.6311 288.412 28.2003C289.754 26.7695 290.42 24.0077 290.42 19.926V1.15918H290.409Z" fill="white"/>
<path d="M310.861 33.6795V1.15918H323.062C325.214 1.15918 326.844 1.259 327.987 1.46974C329.573 1.73594 330.904 2.24615 331.98 2.98928C333.055 3.73241 333.921 4.78611 334.575 6.12818C335.229 7.47025 335.562 8.95652 335.562 10.5648C335.562 13.3266 334.686 15.6669 332.933 17.5857C331.181 19.5045 328.02 20.4584 323.439 20.4584H315.143V33.6795H310.861ZM315.143 16.6208H323.506C326.267 16.6208 328.231 16.0995 329.395 15.0679C330.56 14.0364 331.137 12.5723 331.137 10.6979C331.137 9.33362 330.793 8.16901 330.105 7.20405C329.417 6.23909 328.519 5.59579 327.399 5.28522C326.678 5.09667 325.347 4.99684 323.406 4.99684H315.132V16.6208H315.143Z" fill="white"/>
<path d="M0.398438 90.922V49.1514H8.78362V65.6001H25.2323V49.1514H33.6175V90.922H25.2323V72.6654H8.78362V90.922H0.398438Z" fill="white"/>
<path d="M53.9043 90.922V49.1514H84.7165V56.2167H62.2895V65.4781H83.1526V72.5212H62.2895V83.8789H85.5151V90.922H53.9043Z" fill="white"/>
<path d="M208.09 90.9229V49.4961H216.486V83.8798H237.349V90.9229H208.09Z" fill="white"/>
<path d="M261.872 90.922V56.2167H249.549V49.1514H282.568V56.2167H270.268V90.922H261.872Z" fill="white"/>
<path d="M302.928 90.922V49.1514H311.313V65.6001H327.751V49.1514H336.147V90.922H327.751V72.6654H311.313V90.922H302.928Z" fill="white"/>
<path d="M143.167 82.6148H110.481L147.416 18.3284L184.35 82.6148H151.652V91.3328H199.368L147.416 0.892578L95.4629 91.3328H143.167V82.6148Z" fill="#FF5C00"/>
</g>
</svg>
