<svg width="44" height="34" viewBox="0 0 44 34" fill="none" xmlns="http://www.w3.org/2000/svg">
<path d="M16.4229 0.375H4.41628C2.20932 0.375 0.414062 2.25441 0.414062 4.56482V17.1343C0.414062 19.4447 2.20932 21.3241 4.41628 21.3241H9.80142L7.7762 32.2303C7.69999 32.6402 7.80291 33.0636 8.05631 33.3855C8.3097 33.7074 8.68687 33.8936 9.08553 33.8936H13.4076C14.5677 33.8936 15.5989 33.0991 15.95 31.9487L19.8337 22.3047C19.8558 22.2495 19.8747 22.1929 19.8897 22.1356C20.2453 20.7976 20.4251 19.414 20.4251 18.0235V4.56482C20.4251 2.25441 18.6299 0.375 16.4229 0.375Z" fill="#FF5200"/>
<path d="M39.1026 0.375H27.096C24.889 0.375 23.0938 2.25441 23.0938 4.56482V17.1343C23.0938 19.4447 24.889 21.3241 27.096 21.3241H32.4818L30.4559 32.2303C30.379 32.6402 30.482 33.0636 30.736 33.3855C30.9887 33.7074 31.3666 33.8936 31.7652 33.8936H36.0879C37.2487 33.8936 38.2792 33.0991 38.6297 31.948L42.5133 22.3047C42.5355 22.2495 42.5537 22.1929 42.5694 22.1356C42.925 20.7963 43.1048 19.4126 43.1048 18.0235V4.56482C43.1048 2.25441 41.3096 0.375 39.1026 0.375Z" fill="#FF5200"/>
</svg>
