<svg width="18" height="18" viewBox="0 0 18 18" fill="none" xmlns="http://www.w3.org/2000/svg">
<path d="M4.28225 5.81945V17.5H0.752726V5.81945H4.28225ZM2.53638 4.21944C1.9805 4.21944 1.50019 4.01111 1.09542 3.59444C0.690662 3.17778 0.488281 2.67593 0.488281 2.08889C0.488281 1.5037 0.690662 1.00926 1.09542 0.605556C1.50019 0.201852 1.9868 0 2.55527 0C3.12553 0 3.60675 0.201852 3.99892 0.605556C4.39109 1.00926 4.58717 1.5037 4.58717 2.08889C4.58717 2.67593 4.38479 3.17778 3.98003 3.59444C3.57527 4.01111 3.09405 4.21944 2.53638 4.21944ZM17.4883 11.0944V17.5H13.9588V11.7972C13.9588 10.8343 13.8832 10.1574 13.7321 9.76667C13.4784 9.06296 12.9406 8.71111 12.1184 8.71111C11.2963 8.71111 10.7207 9.02315 10.3915 9.64722C10.1396 10.1176 10.0137 10.8083 10.0137 11.7194V17.5H6.48415V5.81945H9.90035V7.42222H9.93812C10.19 6.90185 10.5947 6.45926 11.1524 6.09444C11.7838 5.7037 12.4917 5.50833 13.2761 5.50833C14.4148 5.50833 15.3134 5.75556 15.9718 6.25C16.5528 6.69259 16.9576 7.35648 17.1861 8.24167C17.3875 8.9713 17.4883 9.92222 17.4883 11.0944Z" fill="#FF5100"/>
</svg>
