<svg width="18" height="19" viewBox="0 0 18 19" fill="none" xmlns="http://www.w3.org/2000/svg">
<path d="M4.11819 6.49132V18.1719H0.588663V6.49132H4.11819ZM2.37231 4.89132C1.81644 4.89132 1.33612 4.68299 0.931362 4.26632C0.5266 3.84965 0.324219 3.3478 0.324219 2.76076C0.324219 2.17558 0.5266 1.68113 0.931362 1.27743C1.33612 0.873727 1.82274 0.671875 2.3912 0.671875C2.96147 0.671875 3.44268 0.873727 3.83485 1.27743C4.22702 1.68113 4.42311 2.17558 4.42311 2.76076C4.42311 3.3478 4.22073 3.84965 3.81596 4.26632C3.4112 4.68299 2.92999 4.89132 2.37231 4.89132ZM17.3242 11.7663V18.1719H13.7947V12.4691C13.7947 11.5061 13.7191 10.8293 13.568 10.4385C13.3144 9.73484 12.7765 9.38299 11.9544 9.38299C11.1323 9.38299 10.5566 9.69502 10.2274 10.3191C9.97554 10.7895 9.84962 11.4802 9.84962 12.3913V18.1719H6.32009V6.49132H9.73628V8.0941H9.77406C10.0259 7.57373 10.4307 7.13113 10.9883 6.76632C11.6198 6.37558 12.3277 6.18021 13.112 6.18021C14.2507 6.18021 15.1493 6.42743 15.8077 6.92188C16.3888 7.36447 16.7935 8.02836 17.022 8.91354C17.2235 9.64317 17.3242 10.5941 17.3242 11.7663Z" fill="#002A3B"/>
</svg>
