<svg width="44" height="34" viewBox="0 0 44 34" fill="none" xmlns="http://www.w3.org/2000/svg">
<path d="M27.5771 33.8936H39.5837C41.7907 33.8936 43.5859 32.0141 43.5859 29.7037V17.1343C43.5859 14.8239 41.7907 12.9445 39.5837 12.9445H34.1986L36.2238 2.03825C36.3 1.6284 36.1971 1.20492 35.9437 0.883041C35.6903 0.561169 35.3131 0.375 34.9145 0.375H30.5924C29.4323 0.375 28.4011 1.16946 28.05 2.31989L24.1663 11.9638C24.1442 12.0191 24.1253 12.0757 24.1103 12.1329C23.7547 13.4709 23.5749 14.8546 23.5749 16.245L23.5749 29.7037C23.5749 32.0141 25.3701 33.8936 27.5771 33.8936Z" fill="#FF5200"/>
<path d="M4.89739 33.8936H16.904C19.111 33.8936 20.9062 32.0141 20.9062 29.7037L20.9063 17.1343C20.9063 14.8239 19.111 12.9445 16.904 12.9445H11.5182L13.5441 2.03825C13.621 1.6284 13.518 1.20492 13.264 0.883041C13.0113 0.561169 12.6334 0.375 12.2348 0.375H7.91208C6.75128 0.375 5.72076 1.16946 5.37032 2.32057L1.48666 11.9638C1.46452 12.0191 1.44628 12.0757 1.43064 12.133C1.07496 13.4723 0.895172 14.8559 0.895172 16.245L0.895172 29.7037C0.895172 32.0141 2.69043 33.8936 4.89739 33.8936Z" fill="#FF5200"/>
</svg>
