<svg width="19" height="19" viewBox="0 0 19 19" fill="none" xmlns="http://www.w3.org/2000/svg">
<path d="M9.50518 18.2771C7.08046 18.2771 4.80682 17.3284 3.0944 15.6048C1.38198 13.8812 0.439453 11.5855 0.439453 9.15224C0.439453 6.71893 1.38198 4.42322 3.0944 2.69963C4.80682 0.976043 7.08765 0.0273438 9.50518 0.0273438C11.9227 0.0273438 14.2035 0.976043 15.916 2.69963C17.6284 4.42322 18.5709 6.71893 18.5709 9.15224C18.5709 11.5855 17.6284 13.8812 15.916 15.6048C14.2035 17.3284 11.9227 18.2771 9.50518 18.2771ZM9.50518 1.14261C7.38265 1.14261 5.38244 1.97544 3.87868 3.48901C2.37492 5.00258 1.54747 7.01585 1.54747 9.15224C1.54747 11.2886 2.37492 13.3019 3.87868 14.8155C5.38244 16.329 7.38265 17.1619 9.50518 17.1619C11.6277 17.1619 13.6279 16.329 15.1317 14.8155C16.6355 13.3019 17.4629 11.2886 17.4629 9.15224C17.4629 7.01585 16.6355 5.00258 15.1317 3.48901C13.6279 1.97544 11.6277 1.14261 9.50518 1.14261Z" fill="white"/>
<path d="M11.5983 11.8169C11.4544 11.8169 11.3105 11.759 11.2026 11.6504L9.10885 9.54294C9.00812 9.44155 8.94336 9.29671 8.94336 9.14463V3.69142C8.94336 3.38002 9.1952 3.13379 9.49739 3.13379C9.79958 3.13379 10.0514 3.38726 10.0514 3.69142V8.91289L11.9797 10.8537C12.1955 11.071 12.1955 11.4259 11.9797 11.6431C11.8717 11.7517 11.7278 11.8097 11.5839 11.8097L11.5983 11.8169Z" fill="white"/>
</svg>
