<svg width="234" height="38" viewBox="0 0 234 38" fill="none" xmlns="http://www.w3.org/2000/svg">
<path fill-rule="evenodd" clip-rule="evenodd" d="M6.37907 13.3183H4.90326L2.55236 10.223L1.49457 11.3201V13.3183H0.292969V6.43555H1.49457V9.90961L4.77269 6.43555H6.24834L3.38823 9.40024L6.37907 13.3183Z" fill="white"/>
<path fill-rule="evenodd" clip-rule="evenodd" d="M14.1746 6.43555H15.3891V13.3183H14.3705L10.5831 8.42072V13.3183H9.39453V6.43555H10.4915L14.1746 11.2026V6.43555Z" fill="white"/>
<path fill-rule="evenodd" clip-rule="evenodd" d="M24.561 8.9431C24.4434 8.64271 24.2867 8.39452 24.0778 8.15944C23.8688 7.92435 23.6207 7.75462 23.3334 7.63708C23.0461 7.49341 22.7327 7.44114 22.3931 7.44114C22.0535 7.44114 21.74 7.50646 21.4526 7.624C21.1653 7.74154 20.9303 7.92441 20.7213 8.13337C20.5124 8.34233 20.3557 8.61656 20.2381 8.91695C20.1206 9.21733 20.0683 9.53074 20.0683 9.85725C20.0683 10.1838 20.1206 10.5103 20.2381 10.8107C20.3557 11.1111 20.5124 11.3723 20.7213 11.5943C20.9173 11.8163 21.1784 11.9992 21.4657 12.1167C21.753 12.2604 22.0666 12.3126 22.4062 12.3126C22.7457 12.3126 23.0591 12.2473 23.3465 12.1298C23.6338 12.0122 23.8688 11.8294 24.0778 11.6073C24.2737 11.3984 24.4434 11.1242 24.561 10.8238C24.6785 10.5234 24.7308 10.2099 24.7308 9.88339C24.7308 9.55689 24.6655 9.23041 24.561 8.93002M25.7364 11.2547C25.5666 11.6857 25.3055 12.0775 24.9921 12.3909C24.6786 12.7174 24.2868 12.9656 23.8428 13.1615C23.3987 13.3444 22.9155 13.4488 22.38 13.4488C21.8446 13.4488 21.3613 13.3574 20.9173 13.1746C20.4732 12.9917 20.0945 12.7305 19.7811 12.404C19.4676 12.0906 19.2194 11.7118 19.0365 11.2678C18.8667 10.8368 18.7754 10.3797 18.7754 9.89647C18.7754 9.41324 18.8667 8.95613 19.0365 8.51209C19.2063 8.0811 19.4676 7.70236 19.7811 7.37586C20.1076 7.04935 20.4863 6.80117 20.9304 6.60527C21.3744 6.42243 21.8446 6.33105 22.3931 6.33105C22.9416 6.33105 23.4118 6.42243 23.8558 6.60527C24.2999 6.78811 24.6786 7.04935 24.9921 7.37586C25.3055 7.70236 25.5536 8.06804 25.7364 8.51209C25.9193 8.95613 25.9977 9.40016 25.9977 9.88339C25.9977 10.3666 25.9062 10.8237 25.7364 11.2678V11.2547Z" fill="white"/>
<path fill-rule="evenodd" clip-rule="evenodd" d="M33.1677 6.42188H34.1993L35.8842 11.5415L37.5298 6.43495H38.7966L36.3935 13.3699H35.3486L33.6509 8.42012L31.9661 13.3699H30.9343L28.5312 6.43495H29.8373L31.4829 11.5415L33.1677 6.42188Z" fill="white"/>
<path fill-rule="evenodd" clip-rule="evenodd" d="M41.9941 6.43555H43.1825V12.2343H46.8002V13.3183H41.9941V6.43555Z" fill="white"/>
<path fill-rule="evenodd" clip-rule="evenodd" d="M55.1195 7.53264H51.2407V9.30881H54.6886V10.3928H51.2407V12.2343H55.1718V13.3183H50.0391V6.43555H55.1195V7.53264Z" fill="white"/>
<path fill-rule="evenodd" clip-rule="evenodd" d="M63.3588 8.95578C63.2413 8.66845 63.0845 8.43344 62.8756 8.21142C62.6666 8.00245 62.4053 7.83267 62.118 7.71512C61.8176 7.59758 61.4911 7.54533 61.1385 7.54533H59.7803V12.247H61.1385C61.5042 12.247 61.8307 12.1817 62.118 12.0772C62.4184 11.9596 62.6666 11.8029 62.8756 11.5809C63.0715 11.385 63.2413 11.1238 63.3588 10.8365C63.4763 10.5491 63.5286 10.2357 63.5286 9.89616C63.5286 9.55659 63.4633 9.2431 63.3588 8.95578ZM64.5472 11.2413C64.3774 11.6723 64.1162 12.038 63.7897 12.3384C63.4632 12.6519 63.0714 12.8869 62.6404 13.0698C62.1833 13.2396 61.7001 13.331 61.1515 13.331H58.5918V6.44824H61.1515C61.687 6.44824 62.1833 6.53968 62.6404 6.70946C63.0975 6.87924 63.4763 7.12737 63.7897 7.42776C64.1162 7.7412 64.3643 8.10692 64.5472 8.52485C64.73 8.94278 64.8085 9.38679 64.8085 9.88308C64.8085 10.3794 64.7169 10.8234 64.5472 11.2413Z" fill="white"/>
<path fill-rule="evenodd" clip-rule="evenodd" d="M73.8101 12.782C73.6142 12.9126 73.3791 13.017 73.144 13.1215C72.9089 13.226 72.6476 13.2913 72.3733 13.3436C72.0991 13.3958 71.8119 13.435 71.5115 13.435C70.976 13.435 70.4797 13.3435 70.0357 13.1607C69.5916 12.9909 69.2129 12.7297 68.8994 12.4163C68.586 12.1028 68.3508 11.7241 68.168 11.28C67.9982 10.849 67.9199 10.3788 67.9199 9.8695C67.9199 9.36015 68.0113 8.92917 68.1811 8.48512C68.3508 8.05413 68.5991 7.66233 68.9125 7.34889C69.226 7.02238 69.6047 6.77428 70.0357 6.57838C70.4797 6.39554 70.9499 6.29102 71.4723 6.29102C71.7726 6.29102 72.0469 6.291 72.2951 6.3563C72.5432 6.40854 72.7783 6.4608 72.9742 6.53916C73.1832 6.61752 73.379 6.70899 73.5619 6.82653C73.7447 6.94407 73.9276 7.07467 74.0974 7.23139L73.3269 8.14554C73.1963 8.028 73.0656 7.9366 72.9219 7.84518C72.7783 7.75376 72.6346 7.67541 72.4779 7.61011C72.3212 7.54481 72.1645 7.49257 71.9816 7.45339C71.8118 7.41421 71.6028 7.4011 71.3938 7.4011C71.0804 7.4011 70.7932 7.46642 70.5189 7.58396C70.2446 7.70151 70.0226 7.88438 69.8136 8.1064C69.6046 8.32843 69.461 8.5896 69.3434 8.88998C69.2259 9.17731 69.1737 9.50385 69.1737 9.83036C69.1737 10.183 69.2259 10.5095 69.3434 10.8099C69.461 11.1103 69.6177 11.3714 69.8267 11.5935C70.0226 11.8155 70.2837 11.9853 70.571 12.1028C70.8583 12.2204 71.1719 12.2857 71.5246 12.2857C71.8511 12.2857 72.1514 12.2334 72.4387 12.142C72.713 12.0375 72.961 11.92 73.1831 11.7632V10.4703H71.42V9.41242H74.3454V12.2987C74.1757 12.4554 73.9798 12.586 73.7839 12.7166" fill="white"/>
<path fill-rule="evenodd" clip-rule="evenodd" d="M83.0016 7.53264H79.1096V9.30881H82.5576V10.3928H79.1096V12.2343H83.0538V13.3183H77.9082V6.43555H83.0016V7.53264Z" fill="white"/>
<path fill-rule="evenodd" clip-rule="evenodd" d="M27.679 25.3437C27.4047 25.1478 27.0522 25.0303 26.5951 25.0303H25.1846V27.5117H26.5951C27.0652 27.5117 27.4178 27.3942 27.6921 27.1722C27.9533 26.9502 28.097 26.6498 28.097 26.271C28.097 25.8531 27.9533 25.5396 27.6921 25.3437M29.1027 27.2636C28.946 27.551 28.763 27.799 28.5149 28.008C28.2667 28.2039 27.9795 28.3607 27.6399 28.4651C27.3004 28.5696 26.9476 28.6219 26.5558 28.6219H25.1846V30.829H23.9961V23.9463H26.7126C27.1174 23.9463 27.4832 23.9985 27.8097 24.1161C28.1362 24.2336 28.4105 24.3773 28.6325 24.5862C28.8546 24.7821 29.0373 25.0433 29.1548 25.3176C29.2854 25.6049 29.3246 25.9184 29.3246 26.271C29.3246 26.6628 29.2464 27.0024 29.1158 27.2897L29.1027 27.2636Z" fill="white"/>
<path fill-rule="evenodd" clip-rule="evenodd" d="M34.8115 25.3301L33.6361 28.0858H36.0129L34.8246 25.3301H34.8115ZM38.4161 30.8154H37.1363L36.431 29.1568H33.179L32.4737 30.8154H31.2461L34.276 23.8936H35.3991L38.4292 30.8154H38.4161Z" fill="white"/>
<path fill-rule="evenodd" clip-rule="evenodd" d="M45.5838 25.317C45.3356 25.1342 44.9829 25.0297 44.5258 25.0297H42.7627V27.3544H44.5389C44.983 27.3544 45.3226 27.2499 45.5707 27.041C45.8189 26.832 45.9624 26.5446 45.9624 26.2051C45.9624 25.8133 45.8319 25.539 45.5838 25.3431M45.9755 30.8154L44.2778 28.4123H42.7627V30.8154H41.5742V23.9326H44.6435C45.0353 23.9326 45.4009 23.9849 45.7144 24.0893C46.0278 24.1938 46.289 24.3245 46.5241 24.5334C46.7461 24.7163 46.9159 24.9513 47.0204 25.2256C47.1379 25.4868 47.1902 25.8002 47.1902 26.1267C47.1902 26.414 47.151 26.6753 47.0596 26.8973C46.9682 27.1193 46.8767 27.3283 46.72 27.4981C46.5633 27.6679 46.4066 27.8115 46.2107 27.9421C46.0148 28.0727 45.7927 28.1511 45.5446 28.2164L47.3992 30.8154H45.9755Z" fill="white"/>
<path fill-rule="evenodd" clip-rule="evenodd" d="M53.5103 30.8154H52.2957V25.0688H50.1016V23.9326H55.6914V25.0688H53.5103V30.8154Z" fill="white"/>
<path fill-rule="evenodd" clip-rule="evenodd" d="M63.7254 23.9326H64.9399V30.8154H63.9212L60.1338 25.9178V30.8154H58.9453V23.9326H60.0554L63.7254 28.6996V23.9326Z" fill="white"/>
<path fill-rule="evenodd" clip-rule="evenodd" d="M73.7556 25.0297H69.8637V26.8059H73.3116V27.8899H69.8637V29.7314H73.8079V30.8154H68.6621V23.9326H73.7556V25.0297Z" fill="white"/>
<path fill-rule="evenodd" clip-rule="evenodd" d="M81.2268 25.317C80.9787 25.1342 80.6261 25.0297 80.169 25.0297H78.4059V27.3544H80.1821C80.6261 27.3544 80.9658 27.2499 81.2139 27.041C81.462 26.832 81.5925 26.5446 81.5925 26.2051C81.5925 25.8133 81.462 25.539 81.2139 25.3431M81.6318 30.8154L79.9339 28.4123H78.419V30.8154H77.2305V23.9326H80.2996C80.6914 23.9326 81.0572 23.9849 81.3706 24.0893C81.6841 24.1938 81.9583 24.3245 82.1803 24.5334C82.4024 24.7163 82.5721 24.9513 82.6766 25.2256C82.7942 25.4868 82.8464 25.8002 82.8464 26.1267C82.8464 26.414 82.8071 26.6753 82.7157 26.8973C82.6243 27.1193 82.5328 27.3283 82.3761 27.4981C82.2194 27.6679 82.0628 27.8115 81.8669 27.9421C81.671 28.0727 81.449 28.1511 81.2008 28.2164L83.0553 30.8154H81.6318Z" fill="white"/>
<path fill-rule="evenodd" clip-rule="evenodd" d="M233.973 23.6909V24.3791H233.542C233.439 24.3791 233.275 24.5127 233.018 24.7592C232.833 24.9338 232.648 25.1496 232.494 25.355L229.464 31.9294L226.752 36.9936L225.992 36.6033L228.704 31.652L225.519 25.4064C225.375 25.1701 225.17 24.9647 224.954 24.7901C224.646 24.523 224.451 24.3997 224.358 24.3997H223.927V23.7217H228.796V24.41H228.252C228.128 24.41 227.964 24.5332 227.769 24.7695C227.604 24.9339 227.491 25.1599 227.461 25.3859L229.618 29.8338L231.611 25.3756C231.611 25.1393 231.508 24.9236 231.333 24.7592C231.128 24.523 230.963 24.3894 230.85 24.3894H230.275V23.7217H233.973V23.6909ZM211.004 27.8409L208.847 28.3854C208.385 28.4573 207.953 28.6936 207.656 29.0428C207.43 29.3716 207.316 29.7516 207.327 30.1522V30.1933C207.327 30.5734 207.46 30.9226 207.717 31.1897C207.964 31.4568 208.323 31.6109 208.693 31.6007H208.744C209.227 31.5801 209.689 31.3952 210.049 31.0665C210.419 30.7686 210.727 30.4193 210.973 30.0187L211.004 27.8512V27.8306V27.8409ZM223.465 31.0357L223.444 26.0638C223.475 25.3653 223.208 24.677 222.705 24.184C222.232 23.7114 221.585 23.4546 220.917 23.4649C220.208 23.4341 219.5 23.6498 218.935 24.0915C218.39 24.5333 217.877 25.016 217.394 25.5296L217.024 23.6498H214.168V24.3689H214.713C214.949 24.4202 215.165 24.5435 215.329 24.7284C215.596 24.9647 215.719 25.1599 215.719 25.3037V31.0151C215.719 31.1589 215.586 31.3541 215.329 31.6007C215.175 31.7856 214.949 31.9191 214.713 31.9704H213.624C213.5 31.9704 213.316 31.8472 213.049 31.6007C212.781 31.3644 212.658 31.1692 212.658 31.0151V26.1768C212.699 25.3653 212.309 24.5949 211.651 24.1429C210.912 23.6498 210.039 23.4033 209.166 23.4341C207.758 23.3725 206.412 23.8964 205.406 24.8723L206.639 26.6801H207.286C206.947 26.1049 206.916 25.4064 207.183 24.8003C207.532 24.2867 208.138 24.0094 208.755 24.0813C209.391 24.0094 210.018 24.2148 210.48 24.6462C210.84 25.0571 211.015 25.5913 210.984 26.1357L210.943 27.2246L208.59 27.6972C207.912 27.8615 207.265 28.1183 206.659 28.4676C205.981 28.8579 205.601 29.6283 205.663 30.409C205.642 31.0665 205.889 31.7136 206.351 32.1759C206.772 32.6176 207.358 32.8641 207.974 32.8641C208.621 32.8641 209.237 32.6381 209.71 32.1964C210.172 31.7752 210.593 31.3027 210.973 30.8097L211.23 32.6895H218.893V32.0013H218.359C218.123 31.9499 217.907 31.8266 217.743 31.6417C217.476 31.3952 217.353 31.2 217.353 31.0254V26.4747C217.353 26.1871 217.681 25.807 218.339 25.314C218.904 24.8723 219.592 24.6154 220.301 24.5949C220.701 24.5641 221.112 24.7284 221.369 25.0469C221.605 25.3653 221.729 25.7454 221.708 26.146V31.0459C221.708 31.1897 221.575 31.3952 221.318 31.6417C221.04 31.8985 220.866 32.0218 220.732 32.0218H220.208V32.6998H224.944V32.0218H224.399C224.276 32.0218 224.081 31.8883 223.814 31.6417C223.547 31.3849 223.424 31.1897 223.424 31.0459H223.444L223.465 31.0357ZM203.064 29.5256V29.5565L203.136 28.8374C203.156 28.6011 203.177 28.3546 203.177 28.1183C203.177 27.9129 203.177 27.6971 203.136 27.4814C203.095 27.2657 203.084 27.0808 203.064 26.8753C203.002 26.2384 202.745 25.6427 202.345 25.1599C201.954 24.749 201.389 24.5127 200.804 24.5435C200.136 24.5127 199.468 24.7695 198.996 25.2421C198.523 25.7351 198.174 26.3412 197.989 26.9884V29.3407C197.989 30.0187 198.256 30.6761 198.749 31.1487C199.232 31.6417 199.91 31.9191 200.598 31.9088H200.639C201.287 31.9602 201.924 31.7136 202.365 31.2411C202.766 30.7377 203.012 30.1317 203.064 29.4948V29.5153V29.5256ZM201.256 23.4649C202.273 23.4238 203.249 23.8964 203.855 24.7284C204.512 25.7043 204.841 26.8753 204.779 28.0464C204.831 29.2791 204.45 30.5118 203.731 31.5185C203.115 32.3916 202.119 32.9053 201.061 32.895C200.403 32.9258 199.735 32.7717 199.16 32.443C198.657 32.0937 198.236 31.6315 197.958 31.087V35.4219C197.958 35.5863 198.092 35.8021 198.349 36.0383C198.616 36.2849 198.811 36.3978 198.934 36.3978H199.52V37.0553H194.753V36.3773H195.339C195.565 36.3259 195.781 36.2027 195.935 36.0075C196.13 35.8637 196.274 35.6377 196.315 35.3912V25.314C196.315 25.1804 196.181 24.975 195.935 24.7387C195.791 24.5538 195.565 24.4305 195.339 24.3791H194.753V23.6601H197.681L197.969 25.5399C198.297 24.903 198.78 24.3689 199.366 23.9477C199.941 23.5985 200.598 23.4238 201.266 23.4444V23.4752L201.256 23.4649ZM184.892 6.73121C184.748 6.49495 184.553 6.28953 184.327 6.1149C184.019 5.84781 183.813 5.72454 183.711 5.72454H183.32V5.01574H188.2V5.69369H187.624C187.501 5.69369 187.347 5.81701 187.152 6.06355C186.998 6.2279 186.895 6.45387 186.864 6.67986L189.021 11.1175L191.004 6.71065C191.004 6.46411 190.901 6.2279 190.737 6.06355C190.532 5.82728 190.367 5.69369 190.244 5.69369H189.648V5.01574H193.295V5.69369H192.904C192.781 5.69369 192.596 5.82723 192.339 6.07377C192.144 6.2484 191.97 6.46411 191.857 6.71065L188.775 13.2542L186.125 18.3493L185.334 17.9486L188.076 12.9974L184.892 6.7415V6.73121ZM190.932 32.0115L190.429 31.9807V32.669H195.051V31.9807H194.507C194.384 31.9807 194.199 31.8472 193.952 31.6007C193.695 31.3438 193.572 31.1486 193.572 31.0048V26.0741C193.623 25.3653 193.356 24.6668 192.853 24.1737C192.38 23.732 191.733 23.4957 191.086 23.506C190.439 23.4752 189.802 23.6601 189.278 24.0504C188.826 24.41 188.313 24.862 187.768 25.3859C187.707 24.8106 187.398 24.297 186.936 23.958C186.474 23.6293 185.919 23.4649 185.344 23.4752C184.687 23.4341 184.019 23.6293 183.495 24.0402C183.063 24.4203 182.581 24.8825 182.057 25.4372L181.697 23.7012H178.924V24.3894H179.468C179.591 24.3894 179.776 24.5127 180.033 24.7489C180.29 24.9852 180.413 25.1804 180.413 25.3242V31.0767C180.413 31.2206 180.28 31.426 180.033 31.6726C179.787 31.9191 179.602 32.0526 179.468 32.0526H178.924V32.7409H183.546V32.0526H183.043C182.899 32.0526 182.694 31.9191 182.437 31.6726C182.18 31.4158 182.057 31.2206 182.057 31.0767V26.4542C182.057 26.1357 182.355 25.7557 182.94 25.2934C183.443 24.8722 184.07 24.636 184.728 24.6052C185.128 24.5744 185.529 24.7284 185.816 25.016C186.073 25.3242 186.207 25.7146 186.176 26.1152V31.0459C186.176 31.1897 186.042 31.3849 185.796 31.6417C185.549 31.8985 185.354 32.0218 185.2 32.0218H184.697V32.71H189.319V32.0218H188.775C188.652 32.0218 188.467 31.8883 188.21 31.6417C187.953 31.3849 187.83 31.2 187.83 31.0459V26.3515C187.83 26.0639 188.128 25.7043 188.713 25.2626C189.206 24.8619 189.833 24.6257 190.47 24.6154C190.881 24.5744 191.292 24.7387 191.569 25.0263C191.805 25.3345 191.928 25.7043 191.908 26.0947V31.0254C191.908 31.1692 191.774 31.3643 191.528 31.6212C191.271 31.878 191.076 32.0013 190.932 32.0013L190.911 32.0218L190.932 32.0115ZM180.023 5.5088C179.222 5.43689 178.441 5.80669 177.989 6.46412C177.588 7.05992 177.342 7.74818 177.321 8.46725L181.841 8.07689C181.923 7.47082 181.841 6.86476 181.636 6.28951C181.44 5.75535 180.906 5.48823 180.033 5.48823V5.5088H180.023ZM180.043 14.2403V14.2198C180.978 14.2814 181.913 13.9733 182.642 13.3775C183.31 12.7406 183.793 11.9393 184.019 11.0456H183.474C183.217 11.5182 182.848 11.9188 182.406 12.2064C181.862 12.5043 181.235 12.6378 180.619 12.5968C179.684 12.6378 178.79 12.2064 178.235 11.4565C177.691 10.7888 177.383 9.94644 177.373 9.08356L183.372 8.61108L183.33 7.96391C183.3 7.13185 182.971 6.34084 182.406 5.74504C181.79 5.10816 180.927 4.77949 180.043 4.83085C178.903 4.78976 177.814 5.28282 177.075 6.16624C176.273 7.10103 175.852 8.32343 175.883 9.55612C175.862 10.758 176.273 11.9393 177.054 12.8639C177.773 13.7678 178.883 14.2814 180.033 14.2609L180.043 14.2403ZM177.095 29.6592V29.7311C177.126 29.464 177.136 29.1969 177.146 28.9298C177.146 28.6627 177.167 28.3957 177.167 28.1389C177.167 27.8821 177.167 27.615 177.146 27.3582C177.126 27.1116 177.116 26.8754 177.095 26.6596C177.034 26.0022 176.766 25.3756 176.314 24.8928C175.801 24.4202 175.123 24.1942 174.414 24.2456C173.736 24.1942 173.058 24.4305 172.565 24.8928C172.123 25.3653 171.846 25.9816 171.784 26.6185V26.5672C171.733 26.8137 171.702 27.0705 171.692 27.3273C171.692 27.5944 171.671 27.8615 171.671 28.1183C171.671 28.3751 171.671 28.6422 171.692 28.899C171.692 29.1353 171.733 29.3715 171.784 29.6078C171.856 30.255 172.134 30.8508 172.565 31.3336C173.058 31.8164 173.736 32.0629 174.414 32.0115C175.113 32.0731 175.821 31.8369 176.335 31.3541C176.756 30.8816 177.013 30.2858 177.095 29.6592ZM177.527 24.6976C178.451 25.6118 178.954 26.8753 178.883 28.1697C178.954 29.4742 178.461 30.7378 177.527 31.6623C176.695 32.4841 175.575 32.9463 174.404 32.9463C173.233 32.9463 172.082 32.4943 171.24 31.6623C170.315 30.748 169.812 29.4742 169.884 28.1697C169.75 25.7043 171.63 23.5882 174.106 23.4444H174.404C175.575 23.4444 176.705 23.8861 177.547 24.7079H177.527V24.6976ZM175.154 11.477C175.195 12.2372 174.897 12.9768 174.342 13.5007C173.767 13.9938 173.027 14.2506 172.267 14.2198C171.774 14.2198 171.281 14.1376 170.829 13.9424C170.459 13.7678 170.079 13.6753 169.668 13.6753C169.535 13.6548 169.391 13.6959 169.278 13.7678L168.99 14.0041H168.569V10.8196H169.114C169.216 11.4462 169.504 12.0009 169.966 12.4529C170.541 13.1309 171.404 13.5007 172.298 13.4596C172.75 13.4801 173.202 13.3775 173.592 13.172C173.911 12.9768 174.085 12.6173 174.054 12.2475C174.085 11.8058 173.88 11.3743 173.5 11.1483C173.13 10.9223 172.76 10.7272 172.36 10.5526C172.021 10.419 171.712 10.2752 171.435 10.1622C171.158 10.0389 170.829 9.91567 170.48 9.77186C169.966 9.53559 169.504 9.20689 169.103 8.81653C168.723 8.41591 168.528 7.87146 168.559 7.32703C168.507 6.63878 168.775 5.95054 169.278 5.47801C170.213 4.82058 171.435 4.65622 172.514 5.08766C172.822 5.24174 173.161 5.3239 173.51 5.3239C173.623 5.3239 173.716 5.30336 173.818 5.26227C173.911 5.22118 173.972 5.14927 174.013 5.06709H174.476V7.84065H173.931C173.839 7.29621 173.582 6.78257 173.192 6.40249C172.699 5.80669 171.959 5.47797 171.189 5.49852C170.778 5.45743 170.357 5.5807 170.018 5.82724C169.771 6.03269 169.627 6.33058 169.637 6.6593C169.617 6.99829 169.771 7.31677 170.028 7.53249C170.377 7.76875 170.726 7.97418 171.117 8.14881C171.456 8.28235 171.764 8.42616 172.072 8.53916L173.058 8.92952C173.572 9.14524 174.055 9.45341 174.476 9.83349C174.938 10.2547 175.185 10.871 175.164 11.5079L175.154 11.477ZM163.751 31.7445C164.738 31.8061 165.724 31.5493 166.566 31.0254C167.295 30.481 167.881 29.7619 168.261 28.9298H168.98C168.59 30.1008 167.83 31.1281 166.843 31.878C165.826 32.6073 164.594 32.9874 163.34 32.9463C161.491 33.0182 159.714 32.217 158.533 30.7891C157.331 29.351 156.684 27.5225 156.725 25.6427C156.674 23.8142 157.259 22.0268 158.389 20.5784C159.499 19.1813 161.194 18.4006 162.971 18.4828C163.618 18.4623 164.275 18.5752 164.892 18.791C165.405 18.9964 165.96 19.0991 166.515 19.0991C166.689 19.0991 166.864 19.0786 167.018 19.0067C167.151 18.9348 167.275 18.8526 167.388 18.7396H167.891V23.6601H167.275C167.162 22.6739 166.782 21.7186 166.155 20.9482C165.477 19.9004 164.296 19.2841 163.053 19.3252C161.995 19.2635 160.957 19.6538 160.197 20.3935C159.396 21.3488 158.964 22.5609 158.964 23.8039V23.732C158.934 23.9991 158.923 24.2662 158.903 24.5333C158.903 24.8003 158.882 25.0777 158.882 25.3653C158.882 25.7043 158.882 26.0433 158.923 26.3925C158.964 26.7418 158.975 27.0602 158.995 27.3479C159.098 28.5189 159.591 29.618 160.403 30.4707C161.286 31.3541 162.488 31.8163 163.731 31.7547V31.7342L163.751 31.7445ZM154.588 2.80716H154.547C154.249 2.80716 153.952 2.69416 153.736 2.47844C153.51 2.27299 153.376 1.98539 153.386 1.67722V1.64638C153.366 1.32793 153.5 1.00953 153.736 0.793814C154.229 0.393192 154.938 0.393192 155.431 0.793814C155.667 1.00953 155.801 1.32793 155.78 1.64638H155.739C155.739 1.64638 155.78 1.64641 155.78 1.67722C155.78 1.98539 155.657 2.27299 155.431 2.47844C155.225 2.68388 154.948 2.80716 154.65 2.80716H154.578H154.588ZM144.583 31.8163C145.158 31.8163 145.723 31.7342 146.268 31.5595C146.751 31.4054 147.203 31.1692 147.624 30.8816L147.511 30.8097C146.483 29.8954 145.477 28.9504 144.48 27.995C143.484 27.0397 142.529 26.0227 141.584 24.9647C141.234 25.3345 140.957 25.7454 140.752 26.1974C140.536 26.7521 140.433 27.3376 140.464 27.9231C140.495 28.9709 140.978 29.9468 141.789 30.6145C142.529 31.3541 143.535 31.7856 144.583 31.8061V31.8163ZM149.319 29.7311L149.278 29.69L150.675 30.8507C151.137 31.2411 151.64 31.6109 152.174 31.9807H153.006V32.6998H151.496C150.87 32.6998 150.264 32.5971 149.688 32.3711C149.072 32.0937 148.517 31.7239 148.024 31.2411C147.48 31.7958 146.822 32.217 146.083 32.4841C145.241 32.782 144.357 32.9155 143.463 32.895C142.334 32.895 141.245 32.5046 140.382 31.7547C139.478 31.0356 138.964 29.9263 139.005 28.7757C139.005 27.9231 139.211 27.0911 139.622 26.3515C140.022 25.6427 140.577 25.0366 141.265 24.5846C140.936 24.1737 140.659 23.7217 140.454 23.2492C140.238 22.7459 140.135 22.2117 140.146 21.657C140.094 20.7941 140.423 19.962 141.049 19.3662C141.738 18.791 142.621 18.5034 143.515 18.5547C144.028 18.5342 144.542 18.6164 145.035 18.7705C145.364 18.904 145.693 18.9759 146.042 18.9861C146.175 18.9861 146.309 18.9862 146.432 18.9451C146.545 18.904 146.627 18.8218 146.679 18.7293H147.305V22.0165H146.679C146.576 21.3385 146.258 20.7119 145.754 20.2497C145.189 19.5717 144.337 19.1813 143.463 19.2019C142.827 19.1608 142.21 19.3457 141.697 19.7258C141.265 20.0853 141.019 20.6297 141.049 21.1845C141.049 21.7289 141.234 22.2528 141.594 22.6637C141.984 23.1157 142.488 23.4649 143.032 23.6703C143.926 24.636 144.881 25.6118 145.919 26.5774C146.956 27.5533 147.942 28.4573 148.887 29.3099C149.144 28.899 149.329 28.447 149.452 27.9745C149.565 27.4711 149.617 26.9472 149.617 26.4336C149.647 25.8686 149.432 25.3242 149.01 24.9339C148.569 24.5435 147.994 24.3381 147.408 24.3791V23.6806H152.359V24.3278H151.815C151.692 24.3278 151.455 24.5229 151.116 24.9441C150.86 25.1906 150.675 25.4988 150.592 25.8481V25.8892C150.572 26.5775 150.449 27.276 150.233 27.9231C150.027 28.5703 149.719 29.1661 149.329 29.7105L149.319 29.7311ZM144.47 14.0041V13.3261H143.782C143.638 13.3261 143.422 13.1926 143.135 12.9152C142.847 12.6378 142.703 12.4324 142.703 12.2783V8.54944L144.121 7.03937L148.969 14.0041H161.892V13.3261H161.389C161.152 13.2747 160.937 13.1515 160.772 12.9666C160.505 12.72 160.382 12.5249 160.382 12.34V7.82008C160.382 7.50164 160.711 7.12155 161.368 6.64902C161.933 6.21758 162.621 5.97105 163.33 5.9505C163.731 5.91969 164.142 6.08409 164.409 6.38199C164.666 6.70043 164.799 7.09075 164.779 7.50164V12.3297C164.779 12.494 164.645 12.7097 164.388 12.946C164.234 13.1309 164.008 13.2542 163.772 13.3056H163.279V13.9835H168.014V13.3056H167.429C167.306 13.3056 167.121 13.1823 166.854 12.946C166.587 12.6994 166.463 12.5043 166.463 12.3194V7.35781C166.494 6.65929 166.227 5.97109 165.724 5.47801C165.251 5.00548 164.604 4.74866 163.936 4.75893C163.227 4.72812 162.529 4.94381 161.974 5.37525C161.42 5.81696 160.896 6.29979 160.403 6.81341L160.033 4.9849H157.177V5.66291H157.763C157.886 5.66291 158.071 5.78616 158.338 6.0327C158.605 6.26896 158.728 6.46415 158.728 6.61823V12.3194C158.728 12.4837 158.595 12.6994 158.338 12.946C158.071 13.1823 157.886 13.3056 157.763 13.3056H156.643C156.417 13.2439 156.211 13.1206 156.047 12.946C155.77 12.6994 155.636 12.5043 155.636 12.3194V4.9849H152.421V5.66291H152.965C153.202 5.71427 153.417 5.83752 153.582 6.0327C153.849 6.26896 153.972 6.46415 153.972 6.61823V12.3194C153.972 12.4837 153.839 12.6994 153.582 12.9357C153.428 13.1206 153.202 13.2542 152.965 13.3056H151.959C151.64 13.2131 151.353 13.059 151.106 12.833C150.798 12.6276 150.531 12.3913 150.294 12.1139L145.425 5.64234L148.815 1.99566C148.918 1.90321 149.206 1.65668 149.688 1.29715C149.956 1.05061 150.264 0.875953 150.603 0.752685H151.281V0.0644531H146.216V0.752685H146.884C147.007 0.752685 147.213 0.917032 147.47 1.25602C147.726 1.59501 147.819 1.82104 147.726 1.93403L142.744 7.50164V1.80049C142.744 1.65667 142.878 1.44096 143.176 1.1636C143.463 0.88625 143.679 0.752685 143.823 0.752685H144.511V0.0644531H139.057V0.752685H139.745C139.878 0.752685 140.115 0.88625 140.392 1.1636C140.68 1.44096 140.823 1.65667 140.823 1.80049V12.2783C140.823 12.4221 140.69 12.6378 140.392 12.9152C140.104 13.1926 139.889 13.3261 139.745 13.3261H139.057V14.0041H144.511H144.46H144.47ZM135.523 12.5968C136.139 12.6378 136.745 12.494 137.29 12.2064C137.731 11.8982 138.111 11.4976 138.368 11.0148H138.954C138.697 11.9187 138.204 12.7097 137.526 13.3569C136.786 13.9732 135.841 14.2814 134.866 14.23C133.694 14.2711 132.595 13.7678 131.876 12.8536C131.126 11.9291 130.726 10.758 130.757 9.5664C130.685 8.28235 131.147 7.01888 132.01 6.06355C132.79 5.22121 133.9 4.74866 135.04 4.75893C135.667 4.75893 136.273 4.86167 136.848 5.08766C137.372 5.30338 137.844 5.62177 138.266 6.00185L136.951 8.06661L136.406 8.09746C136.53 7.48111 136.499 6.84424 136.293 6.24844C136.057 5.67319 135.461 5.33416 134.855 5.43688C134.064 5.38552 133.314 5.75533 132.873 6.40249C132.41 7.17292 132.184 8.07689 132.225 8.97058C132.195 9.8951 132.513 10.8196 133.119 11.5284C133.725 12.2269 134.619 12.6173 135.543 12.5659V12.607L135.523 12.5968ZM126.843 0.0644531H130.489V0.752685H129.811C129.688 0.752685 129.483 0.88625 129.175 1.1636C128.866 1.44096 128.723 1.65667 128.723 1.80049V12.2783C128.723 12.4221 128.866 12.6378 129.175 12.9152C129.483 13.1926 129.688 13.3261 129.811 13.3261H130.489V14.0041H125.107V13.3158H125.785C125.908 13.3158 126.113 13.1823 126.411 12.9049C126.699 12.6276 126.843 12.4221 126.843 12.268V2.12921L121.779 14.2609L116.724 1.92375V12.2783C116.724 12.4221 116.868 12.6378 117.156 12.9152C117.444 13.1926 117.649 13.3261 117.772 13.3261H118.45V14.0041H114.115V13.3261H114.793C114.937 13.3261 115.163 13.1926 115.44 12.9152C115.728 12.6378 115.872 12.4324 115.872 12.2783V1.80049C115.872 1.65667 115.728 1.44096 115.44 1.1636C115.153 0.88625 114.937 0.752685 114.793 0.752685H114.115V0.0644531H118.152L122.343 10.5012H122.456L126.822 0.0644531H126.843Z" fill="white"/>
<path d="M99.0647 37.0552H98.1113V0.0644531H99.4827V37.0552H99.0647Z" fill="white"/>
</svg>
