<svg width="210" height="17" viewBox="0 0 210 17" fill="none" xmlns="http://www.w3.org/2000/svg">
<path d="M79.2031 1.19336H81.7878V7.30912H88.8136V1.19336H91.3982V15.9094H88.8136V9.70264H81.7878V15.9094H79.2031V1.19336Z" fill="white"/>
<path d="M32.791 1.19336H43.8394V3.50497H35.3848V7.32732H42.7655V9.65714H35.3848V13.5887H43.8121V15.9003H32.791V1.19336Z" fill="white"/>
<path d="M50.2441 1.19336H52.8288V15.9094H50.2441V1.19336Z" fill="white"/>
<path d="M7.70845 8.21954C9.39211 7.47327 10.1748 6.22646 10.1748 4.78852C10.1748 2.60432 8.44561 0.984375 5.62435 0.984375C2.60287 0.984375 0.682605 2.68623 0.682605 5.16166C0.682605 6.7179 1.42887 7.7918 2.91231 8.51077C0.992031 9.07502 0.0273438 10.3855 0.0273438 12.051C0.0273438 14.4354 2.02042 16.292 5.31493 16.292C8.60943 16.292 10.739 14.5173 10.739 11.9418C10.739 10.2126 9.83805 9.01131 7.69936 8.22864L7.70845 8.21954ZM5.45145 2.43141C6.78927 2.43141 7.72666 3.4416 7.72666 4.94324C7.72666 5.31637 7.68115 6.37207 6.20682 7.54608C4.19553 6.7088 3.31275 5.94433 3.31275 4.5701C3.31275 3.30509 4.23194 2.43141 5.45145 2.43141ZM5.47875 14.8267C3.70409 14.8267 2.59379 13.5344 2.59379 11.8508C2.59379 10.604 3.51296 9.73028 3.87699 9.47545C4.02261 9.36624 4.28654 9.21153 4.28654 9.21153C6.82568 10.249 8.09978 11.059 8.09978 12.597C8.09978 13.9713 7.00769 14.8267 5.47875 14.8267Z" fill="#FF5100"/>
<path d="M19.3393 0.983963C18.0379 0.965762 17.4099 1.52091 16.9367 2.06696C16.7091 1.73933 15.9811 0.993064 14.9891 0.983963C13.3782 0.956661 12.3407 1.92135 12.3134 3.42299C12.277 4.90642 13.3054 5.91662 14.8799 5.94392C16.1813 5.96212 16.8092 5.40697 17.2734 4.86092C17.5009 5.18855 18.1653 5.86201 19.2028 5.93482C20.8136 5.98032 21.8693 5.00653 21.9057 3.50489C21.9421 2.02146 20.9137 1.00216 19.3393 0.983963ZM14.707 4.6516C13.806 4.6334 13.4874 3.97814 13.4965 3.41389C13.5147 2.62211 13.9789 2.19437 14.8253 2.21258C15.7262 2.23078 16.2268 3.13176 16.2723 3.25917C16.2359 3.41389 15.7536 4.6698 14.707 4.6516ZM19.4212 4.71531C18.5202 4.6971 18.0197 3.79612 17.9742 3.66871C18.0106 3.514 18.4929 2.25808 19.5395 2.27628C20.4405 2.29448 20.759 2.94974 20.7499 3.514C20.7317 4.30577 20.2676 4.73351 19.4212 4.71531Z" fill="#FF5100"/>
<path d="M58.8717 8.4829V8.4374C58.8717 4.31472 62.0297 0.829102 66.4618 0.829102C69.0282 0.829102 70.6027 1.54807 72.1134 2.82218L70.4753 4.77886C69.3377 3.83238 68.2274 3.22262 66.3526 3.22262C63.6405 3.22262 61.5838 5.57974 61.5838 8.3919V8.4374C61.5838 11.468 63.5768 13.6977 66.5892 13.6977C67.9726 13.6977 69.2376 13.2517 70.1385 12.5874V9.85713H66.3708V7.58192H72.6322V13.7614C71.1851 14.9991 69.101 16.0548 66.4891 16.0548C61.8841 16.0548 58.8535 12.7785 58.8535 8.4829H58.8717Z" fill="white"/>
<path d="M102.621 3.58688H97.9336V1.19336H109.901V3.58688H105.214V15.9094H102.63V3.58688H102.621Z" fill="white"/>
<path d="M123.008 1.19336H129.57C131.417 1.19336 132.873 1.73941 133.82 2.66769C134.593 3.46857 135.039 4.56067 135.039 5.84389V5.88939C135.039 8.31021 133.592 9.75725 131.544 10.3488L135.521 15.9185H132.454L128.841 10.7856H125.602V15.9185H123.017V1.19336H123.008ZM129.388 8.49223C131.235 8.49223 132.418 7.52754 132.418 6.035V5.9895C132.418 4.41506 131.28 3.55048 129.369 3.55048H125.602V8.49223H129.388Z" fill="white"/>
<path d="M140.488 8.60107V8.55556C140.488 4.41468 143.683 0.947266 148.206 0.947266C152.729 0.947266 155.878 4.37828 155.878 8.51916V8.56467C155.878 12.7055 152.683 16.173 148.16 16.173C143.637 16.173 140.488 12.7419 140.488 8.60107ZM153.166 8.60107V8.55556C153.166 5.6979 151.082 3.34079 148.16 3.34079C145.239 3.34079 143.2 5.6524 143.2 8.51006V8.55556C143.2 11.4132 145.284 13.7703 148.206 13.7703C151.127 13.7703 153.166 11.4587 153.166 8.60107Z" fill="white"/>
<path d="M165.663 1.1748H168.038L174.463 15.8909H171.751L170.268 12.3597H163.36L161.859 15.8909H159.229L165.654 1.1748H165.663ZM169.34 10.0845L166.81 4.24179L164.307 10.0845H169.34Z" fill="white"/>
<path d="M180.025 1.1748H185.513C190.136 1.1748 193.331 4.351 193.331 8.49188V8.53738C193.331 12.6783 190.136 15.9 185.513 15.9H180.025V1.1748ZM182.61 3.52282V13.5337H185.513C188.607 13.5337 190.619 11.4496 190.619 8.57378V8.52828C190.619 5.64331 188.598 3.52282 185.513 3.52282H182.61Z" fill="white"/>
<path d="M197.881 13.7701L199.437 11.9226C200.848 13.1421 202.277 13.8338 204.088 13.8338C205.689 13.8338 206.69 13.0784 206.69 11.9863V11.9408C206.69 10.8851 206.099 10.3209 203.369 9.6929C200.238 8.93753 198.472 8.00924 198.472 5.29719V5.25169C198.472 2.73076 200.575 0.983398 203.496 0.983398C205.644 0.983398 207.346 1.63866 208.838 2.83087L207.455 4.78755C206.126 3.79556 204.807 3.27681 203.46 3.27681C201.949 3.27681 201.066 4.05038 201.066 5.02417V5.06967C201.066 6.20728 201.74 6.70782 204.579 7.38129C207.692 8.13666 209.293 9.25606 209.293 11.6951V11.7406C209.293 14.4981 207.127 16.1363 204.033 16.1363C201.785 16.1363 199.656 15.3627 197.89 13.7792L197.881 13.7701Z" fill="white"/>
</svg>
