<svg width="19" height="24" viewBox="0 0 19 24" fill="none" xmlns="http://www.w3.org/2000/svg">
<path d="M9.50445 19.5733C9.4325 19.5733 9.36776 19.5589 9.29581 19.5371C9.20228 19.5009 9.12313 19.4502 9.06557 19.3778C8.74899 19.0519 7.19486 17.4297 5.66951 15.3513C3.5038 12.4038 2.41016 9.92703 2.41016 8.00066C2.41016 6.99403 2.56843 6.04533 2.89221 5.1618C3.24477 4.19138 3.7772 3.34407 4.48951 2.62711C5.82779 1.2801 7.61217 0.53418 9.51166 0.53418C11.4111 0.53418 13.1955 1.2801 14.5338 2.62711C15.2389 3.33683 15.7785 4.19138 16.1311 5.1618C16.4477 6.03808 16.6132 6.99403 16.6132 8.00066C16.6132 9.92703 15.5195 12.4038 13.3538 15.3513C11.8285 17.4297 10.2743 19.0519 9.95775 19.3778C9.89299 19.443 9.82103 19.5009 9.7275 19.5371C9.65555 19.5661 9.59081 19.5733 9.51886 19.5733H9.50445ZM9.49727 1.72911C7.91437 1.72911 6.43219 2.35192 5.31696 3.47442C3.89234 4.90834 3.59013 6.72607 3.59013 8.00066C3.59013 11.0351 7.13009 15.5903 9.50445 18.1177C11.8788 15.5903 15.4188 11.0278 15.4188 8.00066C15.4188 6.73331 15.1166 4.91558 13.692 3.47442C12.5767 2.35192 11.0874 1.72911 9.50445 1.72911H9.49727Z" fill="white"/>
<path d="M9.50486 23.68C7.1305 23.68 4.89285 23.3976 3.19482 22.8762C0.748508 22.1302 0.230469 21.1381 0.230469 20.4356C0.230469 19.7331 0.741313 18.741 3.19482 17.9951C3.50421 17.9009 3.83517 18.0747 3.92871 18.3934C4.02224 18.7048 3.84957 19.0379 3.53299 19.1321C1.85654 19.6462 1.41044 20.2039 1.41044 20.4356C1.41044 20.6674 1.85654 21.225 3.53299 21.7392C6.82112 22.7386 12.1742 22.7386 15.4696 21.7392C17.146 21.225 17.5921 20.6674 17.5921 20.4356C17.5921 20.2039 17.146 19.6462 15.4696 19.1321C15.1602 19.0379 14.9803 18.7048 15.0738 18.3934C15.1674 18.082 15.4983 17.9009 15.8077 17.9951C18.254 18.741 18.7721 19.7331 18.7721 20.4356C18.7721 21.1381 18.2612 22.1302 15.8077 22.8762C14.1169 23.3903 11.872 23.68 9.49768 23.68H9.50486Z" fill="white"/>
<path d="M9.50506 10.7099C11.182 10.7099 12.5414 9.34162 12.5414 7.65377C12.5414 5.96593 11.182 4.59766 9.50506 4.59766C7.82815 4.59766 6.46875 5.96593 6.46875 7.65377C6.46875 9.34162 7.82815 10.7099 9.50506 10.7099Z" stroke="white" stroke-width="1.5" stroke-miterlimit="10"/>
</svg>
